<?xml version="1.0" encoding="UTF-8" standalone="no"?>
<!DOCTYPE svg PUBLIC "-//W3C//DTD SVG 1.1//EN" "http://www.w3.org/Graphics/SVG/1.1/DTD/svg11.dtd">
<svg width="100%" height="100%" viewBox="0 0 128 128" version="1.1" xmlns="http://www.w3.org/2000/svg" xmlns:xlink="http://www.w3.org/1999/xlink" xml:space="preserve" xmlns:serif="http://www.serif.com/" style="fill-rule:evenodd;clip-rule:evenodd;">
    <path d="M126,16L126,112C126,119.727 119.727,126 112,126L16,126C8.273,126 2,119.727 2,112L2,16C2,8.273 8.273,2 16,2L112,2C119.727,2 126,8.273 126,16Z" style="fill:rgb(54,61,82);stroke:rgb(33,37,50);stroke-width:4px;"/>
    <g transform="matrix(0.101,0,0,0.101,12.322,12.322)">
        <g>
            <path d="M105,673L105,706C376.333,942 647.667,942 919,706L919,673L105,673Z" style="fill:white;fill-rule:nonzero;"/>
            <path d="M105,673L257,687C265,687.667 270,692.333 272,701L276,768L408,778L416,717C417.333,709.667 422.333,704.667 431,702L593,702C601.667,704.667 606.667,709.667 608,717L616,778L748,768L752,701C754,692.333 759,687.667 767,687L919,673L919,427C939,401 957.667,374 975,346C951.667,306.667 924,270.667 892,238C863.333,251.333 836,267 810,285C783.333,260.333 754,239 722,221C726.667,187 729.333,153 730,119C690.667,100.333 649.667,86.333 607,77C589.667,105.667 574.333,135.333 561,166C528.333,161.333 495.667,161.333 463,166C449.667,135.333 434.333,105.667 417,77C374.333,86.333 333.333,100.333 294,119C294.667,153 297.333,187 302,221C270,239 240.667,260.333 214,285C188,267 160.667,251.333 132,238C100,270.667 72.333,306.667 49,346C66.333,374 85,401 105,427L105,673ZM105,706L105,745C105,1021 918,1021 918,745L918,706L784,718L779,787C777.667,793.667 773,798 765,800L603,811C595,811 589.667,807.333 587,800L577,735L447,735L437,800C434.333,807.333 429,811 421,811L259,800C251,798 246.333,793.667 245,787L240,718L105,706Z" style="fill:rgb(71,140,191);fill-rule:nonzero;"/>
            <path d="M483,600C486,634 538,634 541,600L541,514C538,480 486,480 483,514L483,600Z" style="fill:white;fill-rule:nonzero;"/>
            <circle cx="725" cy="526" r="90" style="fill:white;"/>
            <circle cx="299" cy="526" r="90" style="fill:white;"/>
        </g>
        <g>
            <circle cx="307" cy="532" r="60" style="fill:rgb(65,64,66);"/>
            <circle cx="717" cy="532" r="60" style="fill:rgb(65,64,66);"/>
        </g>
    </g>
</svg>
